<?xml version="1.0" encoding="UTF-8" standalone="no"?>
<svg width="22px" height="14px" viewBox="0 0 22 14" version="1.1" xmlns="http://www.w3.org/2000/svg" xmlns:xlink="http://www.w3.org/1999/xlink">
    <!-- Generator: Sketch 3.8.3 (29802) - http://www.bohemiancoding.com/sketch -->
    <title>bump_icon@svg</title>
    <desc>Created with Sketch.</desc>
    <defs></defs>
    <g id="Welcome" stroke="none" stroke-width="1" fill="none" fill-rule="evenodd">
        <g id="Versioning" transform="translate(-774.000000, -4238.000000)" fill="#c1c1c1">
            <g id="Cards-Copy-7" transform="translate(707.000000, 3671.000000)">
                <g id="bump_icon" transform="translate(67.000000, 567.000000)">
                    <g id="Icon-24px">
                        <path d="M4.98024569,1.99209486 L1.9947891,1.99209486 C0.89912179,1.99209486 0.0746412712,2.88779012 0.166715945,3.99268621 L0.829331485,11.9440727 C0.921181986,13.0462787 1.89458788,13.944664 3.00299369,13.944664 L13.8703117,13.944664 C14.9909357,13.944664 15.8772579,13.0489688 15.8772579,11.9440727 L15.8772579,5.45960628 C15.9161342,5.3042519 15.9367589,5.14169968 15.9367589,4.9743415 L15.9367589,1.99799052 C15.9367589,0.89723671 15.0370326,0 13.9271639,0 L6.98983211,0 C5.87883815,0 4.98343261,0.891346337 4.98024569,1.99209486 Z M18.0106676,13.944664 L21.9799821,13.944664 L21.9799821,1.99209486 L18.0106676,1.99209486 L18.0106676,13.944664 Z" id="Shape" transform="translate(11.091172, 6.972332) scale(-1, 1) translate(-11.091172, -6.972332) "></path>
                    </g>
                </g>
            </g>
        </g>
    </g>
</svg>
