<?xml version="1.0" encoding="UTF-8" standalone="no"?>
<svg width="21px" height="12px" viewBox="0 0 21 12" version="1.1" xmlns="http://www.w3.org/2000/svg" xmlns:xlink="http://www.w3.org/1999/xlink">
    <!-- Generator: Sketch 3.8.3 (29802) - http://www.bohemiancoding.com/sketch -->
    <title>bump_icon_final@svg</title>
    <desc>Created with Sketch.</desc>
    <defs></defs>
    <g id="Welcome" stroke="none" stroke-width="1" fill="none" fill-rule="evenodd">
        <g id="Versioning" transform="translate(-304.000000, -4897.000000)" fill="#2E82D6">
            <g id="Cards-Copy-5" transform="translate(232.000000, 4328.000000)">
                <path d="M72,569.990402 C72,569.443418 72.4506455,569 73.0047528,569 L75.5225391,569 C76.0774487,569 76.5272919,569.45132 76.5272919,569.990402 L76.5272919,579.169899 C76.5272919,579.716883 76.0766464,580.160301 75.5225391,580.160301 L73.0047528,580.160301 C72.4498432,580.160301 72,579.708981 72,579.169899 L72,569.990402 Z M78.1597693,569.035537 C78.1597693,569.035537 88.6678803,569.035537 89.394712,569.035537 C90.1215436,569.035537 92.3842549,568.922238 92.3842549,572.323117 C92.3842549,575.723996 92.3842549,573.939559 92.3842549,575.708034 C92.3842549,577.476508 92.0306327,578.258999 90.29702,578.258999 C88.5634074,578.258999 88.498993,578.259 87.6668904,578.258999 C86.8347877,578.258999 85.7964824,578.060205 85.7964824,576.658724 C85.7964824,575.257243 85.7964822,575.361404 85.7964822,574.583378 C85.7964822,573.805352 85.9056764,573.029789 87.3323306,573.029789 C88.7589848,573.029789 88.7499662,573.642379 88.7499662,574.583378 C88.7499662,575.524377 88.7589848,575.697042 88.7589848,575.697042 L89.3947122,575.708034 L89.3947122,574.583378 C89.3947122,573.57853 89.5701884,572.413388 87.3738551,572.413388 C85.1775217,572.413388 85.1438108,573.726768 85.1438108,574.583378 C85.1438108,575.439988 85.143811,575.351835 85.143811,576.658723 C85.143811,577.965612 85.609018,578.879188 87.6668904,578.879188 C89.7247628,578.879188 89.0397466,578.879188 89.0397466,578.879188 C89.0397466,578.879188 90.29702,578.879188 90.29702,579.901227 C90.2970199,580.923266 89.2150586,581 89.2150586,581 L85.143811,581 C82.3469385,581 80.3016785,578.619124 80.3016785,576.658723 L78.1144982,576.658723 L78.1597693,569.035537 Z" id="bump_icon_final"></path>
            </g>
        </g>
    </g>
</svg>
