<?xml version="1.0" encoding="UTF-8" standalone="no"?>
<svg width="18px" height="18px" viewBox="0 0 18 18" version="1.1" xmlns="http://www.w3.org/2000/svg" xmlns:xlink="http://www.w3.org/1999/xlink">
    <!-- Generator: Sketch 3.8.3 (29802) - http://www.bohemiancoding.com/sketch -->
    <title>Facebook@svg</title>
    <desc>Created with Sketch.</desc>
    <defs></defs>
    <g id="Welcome" stroke="none" stroke-width="1" fill="none" fill-rule="evenodd">
        <g id="Login" transform="translate(-958.000000, -668.000000)" fill="#FFFFFF">
            <path d="M958.993462,686 C958.444627,686 958,685.555097 958,685.006476 L958,668.993454 C958,668.444694 958.444697,668 958.993462,668 L975.006608,668 C975.555233,668 976,668.444694 976,668.993454 L976,685.006476 C976,685.555167 975.555163,686 975.006608,686 L970.419739,686 L970.419739,679.029408 L972.759445,679.029408 L973.109783,676.312845 L970.419739,676.312845 L970.419739,674.578491 C970.419739,673.791983 970.638142,673.256004 971.765984,673.256004 L973.204492,673.255375 L973.204492,670.825659 C972.955707,670.792553 972.101794,670.718589 971.108332,670.718589 C969.034313,670.718589 967.614383,671.984572 967.614383,674.309453 L967.614383,676.312845 L965.268671,676.312845 L965.268671,679.029408 L967.614383,679.029408 L967.614383,686 L958.993462,686 Z" id="Facebook"></path>
        </g>
    </g>
</svg>
