<?xml version="1.0" encoding="UTF-8" standalone="no"?>
<svg width="16px" height="16px" viewBox="0 0 16 16" version="1.1" xmlns="http://www.w3.org/2000/svg" xmlns:xlink="http://www.w3.org/1999/xlink">
    <!-- Generator: Sketch 3.8.3 (29802) - http://www.bohemiancoding.com/sketch -->
    <title>filter_white@svg</title>
    <desc>Created with Sketch.</desc>
    <defs></defs>
    <g id="Welcome" stroke="none" stroke-width="1" fill="none" fill-rule="evenodd">
        <g id="Versioning" transform="translate(-778.000000, -443.000000)" fill="#FFFFFF">
            <g id="Header" transform="translate(0.000000, 403.000000)">
                <g id="Menu" transform="translate(358.000000, 34.000000)">
                    <path d="M432.528,9.472 C433.68,10.632 434.4,12.232 434.4,14 C434.4,17.536 431.536,20.4 428,20.4 C424.464,20.4 421.6,17.536 421.6,14 C421.6,10.736 424.04,8.048 427.2,7.656 L427.2,9.272 C424.928,9.656 423.2,11.624 423.2,14 C423.2,16.648 425.352,18.8 428,18.8 C430.648,18.8 432.8,16.648 432.8,14 C432.8,12.672 432.264,11.472 431.392,10.608 L430.264,11.736 C430.84,12.32 431.2,13.12 431.2,14 C431.2,15.768 429.768,17.2 428,17.2 C426.232,17.2 424.8,15.768 424.8,14 C424.8,12.512 425.824,11.272 427.2,10.912 L427.2,12.624 C426.72,12.904 426.4,13.408 426.4,14 C426.4,14.88 427.12,15.6 428,15.6 C428.88,15.6 429.6,14.88 429.6,14 C429.6,13.408 429.28,12.896 428.8,12.624 L428.8,6 L428,6 C423.584,6 420,9.584 420,14 C420,18.416 423.584,22 428,22 C432.416,22 436,18.416 436,14 C436,11.792 435.104,9.792 433.656,8.344 L432.528,9.472 Z" id="filter_white"></path>
                </g>
            </g>
        </g>
    </g>
</svg>