<?xml version="1.0" encoding="UTF-8" standalone="no"?>
<svg width="28px" height="20px" viewBox="0 0 28 20" version="1.1" xmlns="http://www.w3.org/2000/svg" xmlns:xlink="http://www.w3.org/1999/xlink">
    <!-- Generator: Sketch 3.8.3 (29802) - http://www.bohemiancoding.com/sketch -->
    <title>follow_add@svg</title>
    <desc>Created with Sketch.</desc>
    <defs></defs>
    <g id="Welcome" stroke="none" stroke-width="1" fill="none" fill-rule="evenodd">
        <g id="Versioning" transform="translate(-1082.000000, -3980.000000)">
            <g id="Cards-Copy-7" transform="translate(707.000000, 3671.000000)">
                <g id="Profile" transform="translate(23.000000, 294.000000)">
                    <g id="follow_add" transform="translate(351.000000, 10.000000)">
                        <g id="Icon-24px">
                            <polygon id="Shape" points="0 0 30 0 30 30 0 30"></polygon>
                            <path d="M18.75,15 C21.5125,15 23.75,12.7625 23.75,10 C23.75,7.2375 21.5125,5 18.75,5 C15.9875,5 13.75,7.2375 13.75,10 C13.75,12.7625 15.9875,15 18.75,15 L18.75,15 Z M7.5,12.5 L7.5,8.75 L5,8.75 L5,12.5 L1.25,12.5 L1.25,15 L5,15 L5,18.75 L7.5,18.75 L7.5,15 L11.25,15 L11.25,12.5 L7.5,12.5 L7.5,12.5 Z M18.75,17.5 C15.4125,17.5 8.75,19.175 8.75,22.5 L8.75,25 L28.75,25 L28.75,22.5 C28.75,19.175 22.0875,17.5 18.75,17.5 L18.75,17.5 Z" id="Shape" fill="#2E82D6"></path>
                        </g>
                    </g>
                </g>
            </g>
        </g>
    </g>
</svg>