<?xml version="1.0" encoding="UTF-8" standalone="no"?>
<svg width="19px" height="16px" viewBox="0 0 19 16" version="1.1" xmlns="http://www.w3.org/2000/svg" xmlns:xlink="http://www.w3.org/1999/xlink">
    <!-- Generator: Sketch 3.8.3 (29802) - http://www.bohemiancoding.com/sketch -->
    <title>hide@svg</title>
    <desc>Created with Sketch.</desc>
    <defs></defs>
    <g id="Welcome" stroke="none" stroke-width="1" fill="none" fill-rule="evenodd">
        <g id="Change-Password---Error" transform="translate(-741.000000, -375.000000)" fill="#999999">
            <g id="Group" transform="translate(240.000000, 148.000000)">
                <path d="M510.166667,230.333333 C512.466667,230.333333 514.333333,232.2 514.333333,234.5 C514.333333,235.041667 514.225,235.55 514.033333,236.025 L516.466667,238.458333 C517.725,237.408333 518.716667,236.05 519.325,234.5 C517.883333,230.841667 514.325,228.25 510.158333,228.25 C508.991667,228.25 507.875,228.458333 506.841667,228.833333 L508.641667,230.633333 C509.116667,230.441667 509.625,230.333333 510.166667,230.333333 L510.166667,230.333333 Z M501.833333,228.058333 L503.733333,229.958333 L504.116667,230.341667 C502.733333,231.416667 501.65,232.85 501,234.5 C502.441667,238.158333 506,240.75 510.166667,240.75 C511.458333,240.75 512.691667,240.5 513.816667,240.05 L514.166667,240.4 L516.608333,242.833333 L517.666667,241.775 L502.891667,227 L501.833333,228.058333 L501.833333,228.058333 Z M506.441667,232.666667 L507.733333,233.958333 C507.691667,234.133333 507.666667,234.316667 507.666667,234.5 C507.666667,235.883333 508.783333,237 510.166667,237 C510.35,237 510.533333,236.975 510.708333,236.933333 L512,238.225 C511.441667,238.5 510.825,238.666667 510.166667,238.666667 C507.866667,238.666667 506,236.8 506,234.5 C506,233.841667 506.166667,233.225 506.441667,232.666667 L506.441667,232.666667 Z M510.033333,232.016667 L512.658333,234.641667 L512.675,234.508333 C512.675,233.125 511.558333,232.008333 510.175,232.008333 L510.033333,232.016667 L510.033333,232.016667 Z" id="hide"></path>
            </g>
        </g>
    </g>
</svg>