<?xml version="1.0" encoding="UTF-8" standalone="no"?>
<svg width="84px" height="84px" viewBox="0 0 84 84" version="1.1" xmlns="http://www.w3.org/2000/svg" xmlns:xlink="http://www.w3.org/1999/xlink">
    <!-- Generator: Sketch 3.8.3 (29802) - http://www.bohemiancoding.com/sketch -->
    <title>sad@svg</title>
    <desc>Created with Sketch.</desc>
    <defs></defs>
    <g id="Welcome" stroke="none" stroke-width="1" fill="none" fill-rule="evenodd">
        <g id="No-Search" transform="translate(-678.000000, -351.000000)">
            <g id="sad" transform="translate(670.000000, 343.000000)">
                <g id="Icon-24px">
                    <polygon id="Shape" points="0 0 100 0 100 100 0 100"></polygon>
                    <path d="M49.9583333,8.33333333 C26.9583333,8.33333333 8.33333333,27 8.33333333,50 C8.33333333,73 26.9583333,91.6666667 49.9583333,91.6666667 C73,91.6666667 91.6666667,73 91.6666667,50 C91.6666667,27 73,8.33333333 49.9583333,8.33333333 L49.9583333,8.33333333 Z M50,83.3333333 C31.5833333,83.3333333 16.6666667,68.4166667 16.6666667,50 C16.6666667,31.5833333 31.5833333,16.6666667 50,16.6666667 C68.4166667,16.6666667 83.3333333,31.5833333 83.3333333,50 C83.3333333,68.4166667 68.4166667,83.3333333 50,83.3333333 L50,83.3333333 Z M64.5833333,45.8333333 C68.0416667,45.8333333 70.8333333,43.0416667 70.8333333,39.5833333 C70.8333333,36.125 68.0416667,33.3333333 64.5833333,33.3333333 C61.125,33.3333333 58.3333333,36.125 58.3333333,39.5833333 C58.3333333,43.0416667 61.125,45.8333333 64.5833333,45.8333333 L64.5833333,45.8333333 Z M35.4166667,45.8333333 C38.875,45.8333333 41.6666667,43.0416667 41.6666667,39.5833333 C41.6666667,36.125 38.875,33.3333333 35.4166667,33.3333333 C31.9583333,33.3333333 29.1666667,36.125 29.1666667,39.5833333 C29.1666667,43.0416667 31.9583333,45.8333333 35.4166667,45.8333333 L35.4166667,45.8333333 Z M50,58.3333333 C40.2916667,58.3333333 32.0416667,64.4166667 28.7083333,72.9166667 L71.2916667,72.9166667 C67.9583333,64.4166667 59.7083333,58.3333333 50,58.3333333 L50,58.3333333 Z" id="Shape" fill="#888888"></path>
                </g>
            </g>
        </g>
    </g>
</svg>