<?xml version="1.0" encoding="UTF-8" standalone="no"?>
<svg width="16px" height="15px" viewBox="0 0 16 15" version="1.1" xmlns="http://www.w3.org/2000/svg" xmlns:xlink="http://www.w3.org/1999/xlink">
    <!-- Generator: Sketch 3.8.3 (29802) - http://www.bohemiancoding.com/sketch -->
    <title>star_empty@svg</title>
    <desc>Created with Sketch.</desc>
    <defs></defs>
    <g id="Welcome" stroke="none" stroke-width="1" fill="none" fill-rule="evenodd">
        <g id="Versioning" transform="translate(-423.000000, -2607.000000)">
            <g id="Cards" transform="translate(237.000000, 2551.000000)">
                <g id="Stars" transform="translate(113.000000, 55.000000)">
                    <g id="star_empty" transform="translate(72.000000, 0.000000)">
                        <g id="Icon-24px">
                            <polygon id="Bounds" points="0 0 18 0 18 18 0 18"></polygon>
                            <path d="M16.5,6.93 L11.1075,6.465 L9,1.5 L6.8925,6.4725 L1.5,6.93 L5.595,10.4775 L4.365,15.75 L9,12.9525 L13.635,15.75 L12.4125,10.4775 L16.5,6.93 L16.5,6.93 Z M9,11.55 L6.18,13.2525 L6.93,10.0425 L4.44,7.8825 L7.725,7.5975 L9,4.575 L10.2825,7.605 L13.5675,7.89 L11.0775,10.05 L11.8275,13.26 L9,11.55 L9,11.55 Z" id="Shape" fill="#F1C40F"></path>
                        </g>
                    </g>
                </g>
            </g>
        </g>
    </g>
</svg>