<?xml version="1.0" encoding="UTF-8" standalone="no"?>
<svg width="28px" height="20px" viewBox="0 0 28 20" version="1.1" xmlns="http://www.w3.org/2000/svg" xmlns:xlink="http://www.w3.org/1999/xlink">
    <!-- Generator: Sketch 3.8.3 (29802) - http://www.bohemiancoding.com/sketch -->
    <title>unfollow_hover@svg</title>
    <desc>Created with Sketch.</desc>
    <defs></defs>
    <g id="Welcome" stroke="none" stroke-width="1" fill="none" fill-rule="evenodd">
        <g id="Versioning" transform="translate(-1037.000000, -3980.000000)">
            <g id="Cards-Copy-7" transform="translate(707.000000, 3671.000000)">
                <g id="Profile" transform="translate(23.000000, 294.000000)">
                    <g id="unfollow_hover" transform="translate(306.000000, 10.000000)">
                        <g id="Icon-24px">
                            <polygon id="Shape" points="0 0 30 0 30 30 0 30"></polygon>
                            <path d="M18.75,15 C21.5125,15 23.75,12.7625 23.75,10 C23.75,7.2375 21.5125,5 18.75,5 C15.9875,5 13.75,7.2375 13.75,10 C13.75,12.7625 15.9875,15 18.75,15 L18.75,15 Z M8.01776695,13.75 L10.6694174,11.0983496 L8.90165043,9.33058262 L6.25,11.982233 L3.59834957,9.33058262 L1.83058262,11.0983496 L4.48223305,13.75 L1.83058262,16.4016504 L3.59834957,18.1694174 L6.25,15.517767 L8.90165043,18.1694174 L10.6694174,16.4016504 L8.01776695,13.75 L8.01776695,13.75 Z M18.75,17.5 C15.4125,17.5 8.75,19.175 8.75,22.5 L8.75,25 L28.75,25 L28.75,22.5 C28.75,19.175 22.0875,17.5 18.75,17.5 L18.75,17.5 Z" id="Shape" fill="#CB3433"></path>
                        </g>
                    </g>
                </g>
            </g>
        </g>
    </g>
</svg>