<?xml version="1.0" encoding="UTF-8" standalone="no"?>
<svg width="100px" height="100px" viewBox="0 0 100 100" version="1.1" xmlns="http://www.w3.org/2000/svg" xmlns:xlink="http://www.w3.org/1999/xlink">
    <!-- Generator: Sketch 3.8.3 (29802) - http://www.bohemiancoding.com/sketch -->
    <title>avatar</title>
    <desc>Created with Sketch.</desc>
    <defs>
        <circle id="path-1" cx="50" cy="50" r="50"></circle>
        <path d="M63,10.9300572 C63,14.9300575 67.7494085,16.1506528 70.1241127,16.7609506 C77.7248316,18.7143317 92.9262695,22.6210937 92.9262695,22.6210937 C96.0931991,23.7359074 98.6639114,26.1348877 100,29.1941899 L100,39 L0,39 L0,29.1941899 C1.33608862,26.1348877 3.90680088,23.7359074 7.07373047,22.6210937 C7.07373047,22.6210937 22.2815408,18.712694 29.8854459,16.7584941 C32.2569639,16.1490151 37,14.9658203 37,10.9300572 C37,6.894294 37,5.55111512e-16 37,5.55111512e-16 L63,1.11022302e-16 C63,1.11022302e-16 63,6.93005678 63,10.9300572 Z" id="path-3"></path>
    </defs>
    <g id="Welcome" stroke="none" stroke-width="1" fill="none" fill-rule="evenodd">
        <g id="Versioning" transform="translate(-1174.000000, -7959.000000)">
            <g id="avatar" transform="translate(1174.000000, 7959.000000)">
                <mask id="mask-2" fill="white">
                    <use xlink:href="#path-1"></use>
                </mask>
                <use id="circle" fill="#FFFFFF" xlink:href="#path-1"></use>
                <g id="body" mask="url(#mask-2)">
                    <g transform="translate(0.000000, 61.000000)">
                        <mask id="mask-4" fill="white">
                            <use xlink:href="#path-3"></use>
                        </mask>
                        <use id="shoulders" stroke="none" fill="#CCCCCC" fill-rule="evenodd" xlink:href="#path-3"></use>
                        <path d="M50.1982054,-49.999869 C50.2564236,-49.9999592 50.3141022,-50 50.3712221,-50 C50.3769828,-50 50.3827346,-49.9997979 50.3884774,-49.9993945 C53.6863935,-49.9879263 58.586124,-49.7959801 61.8069035,-47.9681705 C65.1481929,-46.071971 69.1517152,-42.3530227 70.3065473,-35.8358702 C72.7363695,-22.1234678 68.2107067,-0.477774784 63.9925604,6.5670629 C59.956693,13.3074717 54.1734249,15.7849101 50.4863899,15.9864386 C50.4566738,15.9954544 50.426681,16 50.3964108,16 C50.3311282,16 50.2650514,15.999235 50.1982054,15.997692 C50.1313594,15.999235 50.0652826,16 50,16 C49.9697298,16 49.939737,15.9954544 49.9100209,15.9864386 C46.2229859,15.7849101 40.4397178,13.3074717 36.4038504,6.5670629 C32.1857041,-0.477774784 27.6600413,-22.1234678 30.0898635,-35.8358702 C31.2446956,-42.3530227 35.2482179,-46.071971 38.5895073,-47.9681705 C41.8102868,-49.7959801 46.7100173,-49.9879263 50.0079334,-49.9993945 C50.0136762,-49.9997979 50.019428,-50 50.0251887,-50 C50.0823086,-50 50.1399872,-49.9999592 50.1982054,-49.999869 L50.1982054,-49.999869 Z" id="head-shadow" stroke="none" fill-opacity="0.2" fill="#999999" fill-rule="evenodd" mask="url(#mask-4)"></path>
                    </g>
                </g>
                <path d="M49.5919957,16 C68.6503906,16.045166 70.2978021,29.8023725 70.409314,31.0574769 C71.4703337,42.9996186 67.4015419,59.1083093 63.5845561,64.7104492 C59.5486887,70.6338388 53.7654207,72.8109816 50.0783856,72.9880824 C49.923124,73 49.8570471,72.9993277 49.7902011,72.9979717 C49.7233551,72.9993277 49.6572783,73 49.5919957,73 C45.8149816,72.8109816 40.0317135,70.6338388 35.9958462,64.7104492 C32.1668549,59.090689 28.0844711,42.8981821 29.1812523,30.9449171 C29.2927223,29.730061 30.5336008,15.954834 49.5919957,16 Z" id="head" fill="#CCCCCC" mask="url(#mask-2)"></path>
            </g>
        </g>
    </g>
</svg>