<?xml version="1.0" encoding="utf-8"?>
<!-- Generator: Adobe Illustrator 18.1.1, SVG Export Plug-In . SVG Version: 6.00 Build 0)  -->
<!DOCTYPE svg PUBLIC "-//W3C//DTD SVG 1.1//EN" "http://www.w3.org/Graphics/SVG/1.1/DTD/svg11.dtd">
<svg version="1.1" id="Layer_1" xmlns="http://www.w3.org/2000/svg" xmlns:xlink="http://www.w3.org/1999/xlink" x="0px" y="0px"
	 viewBox="0 0 800 600" enable-background="new 0 0 800 600" xml:space="preserve">
<g>
	<g>
		<path fill="#333333" d="M332.5,262.9c15.4,0,25.1,11,25.1,25.1c0,18.9-14.8,32.5-33.3,32.5c-15.2,0-25-10.9-25-24.9
			C299.3,276.6,314.1,262.9,332.5,262.9z M326.5,302.4c6.8,0,11.9-5.8,11.9-12.5c0-4.7-2.9-8.7-8.2-8.7c-6.6,0-11.8,5.6-11.8,12.5
			C318.4,298.3,321.4,302.4,326.5,302.4z"/>
		<path fill="#333333" d="M416.4,313.7c-6.4,4.4-14.4,6.8-23.1,6.8c-17.1,0-25.9-10.8-25.9-24.4c0-19,13.7-33.2,33-33.2
			c16,0,23.3,9.1,21.6,22l-17.6,3.8c0.5-5.3-1-8.3-6-8.3c-6.4,0-10.6,6.2-10.6,13.2c0,4.8,2.7,9.5,9.5,9.5c4.7,0,10.7-2.8,14.1-5.4
			L416.4,313.7z"/>
		<path fill="#333333" d="M487.8,298.6c-0.6,2.7,0.1,4.6,2.5,4.6c1.7,0,2.9-0.5,4.5-1.3l-2.2,15.9c-3.2,1.2-8.5,2.2-14,2.2
			c-6.3,0-10.3-1.5-11.5-7c-4.1,4.3-9.8,6.9-16.4,6.9c-12.5,0-20.3-10.7-20.3-23.6c0-20.3,13-32.9,29.4-32.9
			c6.4,0,10.9,2.3,13.5,5.9l0.8-4.9h19.7L487.8,298.6z M470.6,283.9c-1.6-1.8-4.8-3.1-7.9-3.1c-7.2,0-12,5.4-12,13.3
			c0,5.2,3,8.7,8.2,8.7c2.9,0,6.3-1.2,9.1-3.1L470.6,283.9z"/>
		<path fill="#333333" d="M510.9,284.8c0.4-2.6,0.4-4.6-1.9-4.6c-2.2,0-5,1-5.2,1.1l2.3-15.9c0.4-0.2,6-2.1,13.1-2.1
			c6.3,0,10.9,2.3,12.2,7.8c3.3-4.8,7.4-7.8,13.9-7.8c4.6,0,8.6,1.7,9.2,2.2l-5.5,18.4c-0.5-0.4-5-2.2-9.9-2.2
			c-5.5,0-8.4,4.2-9.5,8.7l-5,28.5h-19.5L510.9,284.8z"/>
		<path fill="#333333" d="M594,250.5l-2.4,13.9H609l-2.7,15.5h-17.4L586,296c-0.8,4.7,0.4,6.6,4.1,6.6c3.7,0,7.4-1.8,9.9-3.5
			l3.3,15.9c-6.3,3.2-13.8,5-20.4,5c-13.6,0-19.4-7.5-17.1-21l3.4-19.2h-8.7l2.8-15.5h9.6l4.7-13.9H594z"/>
	</g>
	<g>
		<g>
			<path fill="#333333" d="M247.1,349.5c-12,0-20.7-4.7-23.2-6.3c-3.8-1.9-7.9-2.8-12.1-2.8c-7.2,0-11.7,2.5-14.7,4
				c-2.2-4.3-2-4-5.3-10.9c-2.1-4.3,0.2-8.7,4.7-10.2c17.1-5.8,30.3,0.6,34.2,2.1c3.4,1.3,8.2,5.1,17.9,5c7.3-0.1,11.4-3.3,12.9-9.4
				c0.5-1.5,9.9-57.5,9.9-57.5h11.4c4.2,0,8.9,4.5,7.9,9.8l-8,46.5C279.4,339.4,267.1,349.5,247.1,349.5z"/>
		</g>
		<path fill="#333333" d="M260.9,304.1c-1.6,0.6-3.9,1.5-6.7,1.5c-6,0-9.7-3.4-9.7-9c0-11.3,11.3-17.3,20-13.6l3.4-19.3
			c-3.7,0-7.4,0-11.3,0c-19.5,0-33.4,13.7-33.4,33.5c0,19,15.1,30.9,34.5,25.6L260.9,304.1z"/>
	</g>
</g>
</svg>
